<?xml version="1.0" encoding="utf-8"?>
<svg xmlns="http://www.w3.org/2000/svg"
	xmlns:xlink="http://www.w3.org/1999/xlink"
	width="62px" height="47px" viewBox="0 0 62 47">
<filter filterUnits="objectBoundingBox" x="-3.33" y="-4.55" width="106.67" height="111.36" id="filter0">
<feGaussianBlur in="SourceAlpha" stdDeviation="1.00" result="dsBlurOut1"/>
<feFlood flood-color="rgb(0,0,0)" flood-opacity="0.20" result="dsFloodOut1"/>
<feComposite in="dsFloodOut1" in2="dsBlurOut1" operator="in" result="dsShadow1"/>
<feOffset in="dsShadow1" dx="-0.00" dy="2.00" result="dsOffset1"/>
<feComposite in="dsOffset1" in2="SourceAlpha" operator="out" result="dropShadow1"/>
<feBlend in="dropShadow1" in2="SourceGraphic" mode="normal" result="sourceGraphic"/>
<feImage x="1" y="0" width="60" height="44" preserveApectRatio="none" xlink:href="#symbol0"/>
<feComposite in="grImage1" in2="SourceAlpha" operator="in" result="grOverlay1"/>
<feBlend in="grOverlay1" in2="sourceGraphic" mode="multiply" result="gradientOverlay1"/>
</filter>
<linearGradient id="linear_PSgrad_0" x1="50%" y1="100%" x2="50%" y2="0%">
    <stop offset="0%" stop-color="rgb(215,215,215)" stop-opacity="1" />
    <stop offset="100%" stop-color="rgb(255,255,255)" stop-opacity="1" />
</linearGradient>

<defs>
<rect x="0" y="0" width="60" height="44" id="symbol0" fill="url(#linear_PSgrad_0)"/></defs>
<path fillRule="evenodd" d="M 1 43.9C 1 43.9 1 41.5 1 41.5 1 41.5 61 41.5 61 41.5 61 41.5 61 43.9 61 43.9 61 43.9 1 43.9 1 43.9ZM 51.88 10.28C 51.59 10.28 51.31 10.25 51.03 10.2 51.03 10.2 38.96 30.77 38.96 30.77 39.67 31.65 40.1 32.76 40.1 33.97 40.1 36.78 37.81 39.06 35 39.06 32.19 39.06 29.9 36.78 29.9 33.97 29.9 33.11 30.12 32.3 30.5 31.58 30.5 31.58 19.64 19.26 19.64 19.26 19.08 19.48 18.48 19.6 17.85 19.6 17.48 19.6 17.11 19.55 16.76 19.48 16.76 19.48 13.22 24.94 13.22 24.94 13.84 25.78 14.22 26.82 14.22 27.95 14.22 30.76 11.93 33.04 9.12 33.04 6.31 33.04 4.02 30.76 4.02 27.95 4.02 25.15 6.31 22.86 9.12 22.86 9.49 22.86 9.85 22.91 10.2 22.98 10.2 22.98 13.75 17.52 13.75 17.52 13.12 16.67 12.75 15.63 12.75 14.51 12.75 11.7 15.04 9.42 17.85 9.42 20.66 9.42 22.95 11.7 22.95 14.51 22.95 15.37 22.73 16.18 22.35 16.89 22.35 16.89 33.2 29.21 33.2 29.21 33.76 29 34.37 28.88 35 28.88 35.29 28.88 35.58 28.91 35.86 28.96 35.86 28.96 47.92 8.39 47.92 8.39 47.21 7.51 46.78 6.4 46.78 5.19 46.78 2.38 49.07 0.1 51.88 0.1 54.69 0.1 56.98 2.38 56.98 5.19 56.98 8 54.69 10.28 51.88 10.28ZM 9.12 25.26C 7.63 25.26 6.42 26.47 6.42 27.95 6.42 29.44 7.63 30.65 9.12 30.65 10.61 30.65 11.82 29.44 11.82 27.95 11.82 26.47 10.61 25.26 9.12 25.26ZM 17.85 11.81C 16.36 11.81 15.15 13.02 15.15 14.51 15.15 15.99 16.36 17.2 17.85 17.2 19.34 17.2 20.55 15.99 20.55 14.51 20.55 13.02 19.34 11.81 17.85 11.81ZM 35 31.28C 33.51 31.28 32.3 32.48 32.3 33.97 32.3 35.46 33.51 36.67 35 36.67 36.49 36.67 37.7 35.46 37.7 33.97 37.7 32.48 36.49 31.28 35 31.28ZM 51.88 2.49C 50.39 2.49 49.18 3.7 49.18 5.19 49.18 6.67 50.39 7.88 51.88 7.88 53.37 7.88 54.58 6.67 54.58 5.19 54.58 3.7 53.37 2.49 51.88 2.49Z" fill="rgb(245,209,83)" filter="url(#filter0)"/></svg>