<?xml version="1.0" encoding="utf-8"?>
<svg xmlns="http://www.w3.org/2000/svg"
	xmlns:xlink="http://www.w3.org/1999/xlink"
	width="59px" height="62px" viewBox="0 0 59 62">
<filter filterUnits="objectBoundingBox" x="-7.55" y="-7.55" width="115.09" height="120.75" id="filter0">
<feGaussianBlur in="SourceAlpha" stdDeviation="2.00" result="dsBlurOut1"/>
<feFlood flood-color="rgb(0,0,0)" flood-opacity="0.20" result="dsFloodOut1"/>
<feComposite in="dsFloodOut1" in2="dsBlurOut1" operator="in" result="dsShadow1"/>
<feOffset in="dsShadow1" dx="-0.00" dy="4.00" result="dsOffset1"/>
<feComposite in="dsOffset1" in2="SourceAlpha" operator="out" result="dropShadow1"/>
<feBlend in="dropShadow1" in2="SourceGraphic" mode="normal" result="sourceGraphic"/>
<feImage x="3" y="2" width="53" height="53" preserveApectRatio="none" xlink:href="#symbol0"/>
<feComposite in="grImage1" in2="SourceAlpha" operator="in" result="grOverlay1"/>
<feBlend in="grOverlay1" in2="sourceGraphic" mode="multiply" result="gradientOverlay1"/>
</filter>
<linearGradient id="linear_PSgrad_0" x1="50%" y1="100%" x2="50%" y2="0%">
    <stop offset="0%" stop-color="rgb(215,215,215)" stop-opacity="1" />
    <stop offset="100%" stop-color="rgb(255,255,255)" stop-opacity="1" />
</linearGradient>

<clipPath id="clip0"><path fillRule="evenodd" d="M-0.5 58.5C-0.5 58.5-0.5-1.5-0.5-1.5-0.5-1.5 59.5-1.5 59.5-1.5 59.5-1.5 59.5 58.5 59.5 58.5 59.5 58.5-0.5 58.5-0.5 58.5ZM 12 10.22C 6.6 15.03 3.5 21.94 3.5 29.18 3.5 30.82 3.66 32.47 3.97 34.08 5.85 43.72 13.2 51.45 22.7 53.78 24.65 54.26 26.67 54.5 28.69 54.5 30.4 54.5 32.11 54.33 33.77 53.98 37.89 53.14 41.75 51.24 44.97 48.5 44.97 48.5 28.19 29.43 28.19 29.43 28.19 29.43 23.08 4.49 23.08 4.49 18.98 5.43 15.16 7.4 12 10.22ZM 29.5 2.5C 27.97 2.5 26.44 2.64 24.95 2.91 24.95 2.91 29.55 25.34 29.55 25.34 29.55 25.34 34.96 3.1 34.96 3.1 33.18 2.7 31.34 2.5 29.5 2.5ZM 37.1 3.36C 37.1 3.36 31.31 27.12 31.31 27.12 31.31 27.12 55.19 22.39 55.19 22.39 53.19 13.18 46.17 5.79 37.1 3.36ZM 55.13 24.82C 55.13 24.82 31.34 29.53 31.34 29.53 31.34 29.53 47.4 47.78 47.4 47.78 52.56 42.99 55.5 36.24 55.5 29.18 55.5 27.72 55.37 26.26 55.13 24.82ZM 38.74 6.3C 45.12 8.77 50.18 14.09 52.34 20.61 52.34 20.61 34.38 24.17 34.38 24.17 34.38 24.17 38.74 6.3 38.74 6.3ZM 33.31 51.73C 31.8 52.04 30.24 52.2 28.69 52.2 26.85 52.2 25.02 51.98 23.24 51.54 14.6 49.43 7.92 42.4 6.22 33.64 5.93 32.17 5.79 30.67 5.79 29.18 5.79 22.6 8.6 16.31 13.51 11.94 15.8 9.91 18.47 8.35 21.33 7.37 21.33 7.37 26.07 30.5 26.07 30.5 26.07 30.5 41.63 48.17 41.63 48.17 39.12 49.9 36.28 51.12 33.31 51.73Z"/></clipPath><defs>
<rect x="0" y="0" width="53" height="53" id="symbol0" fill="url(#linear_PSgrad_0)"/><symbol id="symbol1"><path fillRule="evenodd" d="M 37.1 3.36C 46.17 5.79 53.19 13.18 55.19 22.39 55.19 22.39 31.31 27.12 31.31 27.12 31.31 27.12 37.1 3.36 37.1 3.36ZM 38.74 6.3C 38.74 6.3 34.38 24.17 34.38 24.17 34.38 24.17 52.34 20.61 52.34 20.61 50.18 14.09 45.12 8.77 38.74 6.3ZM 24.95 2.91C 26.44 2.64 27.97 2.5 29.5 2.5 31.34 2.5 33.18 2.7 34.96 3.1 34.96 3.1 29.55 25.34 29.55 25.34 29.55 25.34 24.95 2.91 24.95 2.91ZM 44.97 48.5C 41.75 51.24 37.89 53.14 33.77 53.98 32.11 54.33 30.4 54.5 28.69 54.5 26.67 54.5 24.65 54.26 22.7 53.78 13.2 51.45 5.85 43.72 3.97 34.08 3.66 32.47 3.5 30.82 3.5 29.18 3.5 21.94 6.6 15.03 12 10.22 15.16 7.4 18.98 5.43 23.08 4.49 23.08 4.49 28.19 29.43 28.19 29.43 28.19 29.43 44.97 48.5 44.97 48.5ZM 21.33 7.37C 18.47 8.35 15.8 9.91 13.51 11.94 8.6 16.31 5.79 22.6 5.79 29.18 5.79 30.67 5.93 32.17 6.22 33.64 7.92 42.4 14.6 49.43 23.24 51.54 25.02 51.98 26.85 52.2 28.69 52.2 30.24 52.2 31.8 52.04 33.31 51.73 36.28 51.12 39.12 49.9 41.63 48.17 41.63 48.17 26.07 30.5 26.07 30.5 26.07 30.5 21.33 7.37 21.33 7.37ZM 55.13 24.82C 55.37 26.26 55.5 27.72 55.5 29.18 55.5 36.24 52.56 42.99 47.4 47.78 47.4 47.78 31.34 29.53 31.34 29.53 31.34 29.53 55.13 24.82 55.13 24.82Z"/></symbol></defs>
<g><path fillRule="evenodd" d="M 37.1 3.36C 46.17 5.79 53.19 13.18 55.19 22.39 55.19 22.39 31.31 27.12 31.31 27.12 31.31 27.12 37.1 3.36 37.1 3.36ZM 38.74 6.3C 38.74 6.3 34.38 24.17 34.38 24.17 34.38 24.17 52.34 20.61 52.34 20.61 50.18 14.09 45.12 8.77 38.74 6.3ZM 24.95 2.91C 26.44 2.64 27.97 2.5 29.5 2.5 31.34 2.5 33.18 2.7 34.96 3.1 34.96 3.1 29.55 25.34 29.55 25.34 29.55 25.34 24.95 2.91 24.95 2.91ZM 44.97 48.5C 41.75 51.24 37.89 53.14 33.77 53.98 32.11 54.33 30.4 54.5 28.69 54.5 26.67 54.5 24.65 54.26 22.7 53.78 13.2 51.45 5.85 43.72 3.97 34.08 3.66 32.47 3.5 30.82 3.5 29.18 3.5 21.94 6.6 15.03 12 10.22 15.16 7.4 18.98 5.43 23.08 4.49 23.08 4.49 28.19 29.43 28.19 29.43 28.19 29.43 44.97 48.5 44.97 48.5ZM 21.33 7.37C 18.47 8.35 15.8 9.91 13.51 11.94 8.6 16.31 5.79 22.6 5.79 29.18 5.79 30.67 5.93 32.17 6.22 33.64 7.92 42.4 14.6 49.43 23.24 51.54 25.02 51.98 26.85 52.2 28.69 52.2 30.24 52.2 31.8 52.04 33.31 51.73 36.28 51.12 39.12 49.9 41.63 48.17 41.63 48.17 26.07 30.5 26.07 30.5 26.07 30.5 21.33 7.37 21.33 7.37ZM 55.13 24.82C 55.37 26.26 55.5 27.72 55.5 29.18 55.5 36.24 52.56 42.99 47.4 47.78 47.4 47.78 31.34 29.53 31.34 29.53 31.34 29.53 55.13 24.82 55.13 24.82Z" fill="rgb(95,201,239)" filter="url(#filter0)"/><use xlink:href="#symbol1" x="0" y="0" width="59" height="62" fill="none" stroke="rgb(255,255,255)" stroke-width="2.00px" clip-path="url(#clip0)"/></g></svg>