<svg id="Camada_1" xmlns="http://www.w3.org/2000/svg" viewBox="0 0 448 331.3"><style>.st0{fill:#70B5E7;}</style><path class="st0" d="M445.7 29.6c-3.1-3.1-8.2-3.1-11.3 0L384 80l-64-64-29.7 29.7c-3.1 3.1-3.1 8.2 0 11.3s8.2 3.1 11.3 0l18.3-18.3 64 64L445.6 41c3.2-3.2 3.2-8.2.1-11.4zM125.7 57c3.1-3.1 3.1-8.2 0-11.3L80 0 2.3 77.7c-3.1 3.1-3.1 8.2 0 11.3 1.6 1.6 3.6 2.3 5.7 2.3s4.1-.8 5.7-2.3L80 22.7 114.3 57c3.2 3.1 8.2 3.1 11.4 0zm82.3 98.3c-8.8 0-16-7.2-16-16s7.2-16 16-16 16 7.2 16 16-7.2 16-16 16zm59.3-52.7L244.7 80l-28.5 28.5c-2.6-.7-5.3-1.2-8.2-1.2s-5.6.5-8.2 1.2L171.3 80l-22.6 22.6 28.5 28.5c-.7 2.6-1.2 5.3-1.2 8.2 0 17.7 14.3 32 32 32s32-14.3 32-32c0-2.8-.5-5.6-1.2-8.2l28.5-28.5z"/><path class="st0" d="M368 315.3l-96-96 16-16 96 96-16 16zm-240-176c0-44.1 35.9-80 80-80s80 35.9 80 80-35.9 80-80 80-80-35.9-80-80zM299.3 192c-2.4-2.4-5.5-3.6-8.6-4.2 8.4-14.3 13.3-30.8 13.3-48.5 0-53-43-96-96-96s-96 43-96 96 43 96 96 96c17.7 0 34.3-4.9 48.5-13.3.5 3.1 1.7 6.2 4.2 8.6l96 96c3.1 3.1 7.2 4.7 11.3 4.7s8.2-1.6 11.3-4.7l16-16c6.2-6.2 6.2-16.4 0-22.6l-96-96z"/></svg>