<svg xmlns="http://www.w3.org/2000/svg" viewBox="0 0 512 512"><path fill="#70B5E7" d="M432 136c-1.2 0-2.4-.3-3.6-.8-4-2-5.6-6.8-3.6-10.7l32-64c2-3.9 6.8-5.6 10.7-3.6 4 2 5.6 6.8 3.6 10.7l-32 64c-1.3 2.8-4.2 4.4-7.1 4.4z"/><circle fill="#70B5E7" cx="416" cy="160" r="16"/><path fill="#70B5E7" d="M472 464H57.5l101.7-159.8 32.1 64.1 81-129.6 64.8 97.2 70.2-140.3c2-4 .4-8.8-3.6-10.7-4-2-8.8-.4-10.7 3.6l-58 115.6-63.2-94.8-79 126.4-31.9-63.9L48 449.1V40c0-4.4-3.6-8-8-8s-8 3.6-8 8v432c0 4.4 3.6 8 8 8h432c4.4 0 8-3.6 8-8s-3.6-8-8-8z"/></svg>